# xmcd
#
# Track frame offsets: 
#        150
#        4765
#        26545
#        47302
#        66587
#        87245
#        107205
#        128070
#        147370
#        169552
#        188557
#        209855
#        234672
#        254407
#        272317
#
# Disc length: 3869 seconds
#
# Revision: 6
# Processed by: cddbd v1.5.2PL0 Copyright (c) Steve Scherf et al.
# Submitted via: ExactAudioCopy v1.0b3
#
DISCID=cf0f1b0f
DTITLE=AKB48 - Team K 2nd stage 「青春ガールズ」 ～studio recordings コレクション～
DYEAR=2013
DGENRE=JPop
TTITLE0=overture
TTITLE1=青春ガールズ
TTITLE2=ビーチサンダル
TTITLE3=君が星になるまで
TTITLE4=Blue rose
TTITLE5=禁じられた2人
TTITLE6=雨の動物園
TTITLE7=ふしだらな夏
TTITLE8=Don't disturb!
TTITLE9=Virgin love
TTITLE10=日付変更線
TTITLE11=僕の打ち上げ花火
TTITLE12=約束よ
TTITLE13=転がる石になれ
TTITLE14=シンデレラは騙されない
EXTD=
EXTT0=
EXTT1=
EXTT2=
EXTT3=
EXTT4=
EXTT5=
EXTT6=
EXTT7=
EXTT8=
EXTT9=
EXTT10=
EXTT11=
EXTT12=
EXTT13=
EXTT14=
PLAYORDER=
